# xmcd
#
# Track frame offsets:
#	150
#	16563
#	27655
#	43123
#	64721
#	79601
#	98747
#	114635
#	132227
#	144760
#	168580
#	178011
#	192632
#	213500
#	240834
#	256468
#	292766
#
# Disc length: 4349 seconds
#
# Revision: 0
# Processed by: cddbd v1.5.1PL0 Copyright (c) Steve Scherf et al.
# Submitted via: audiograbber 1.83.01
#
DISCID=e610fb11
DTITLE=Joe Ely - 1981-05-15 - Roslyn, NY - My Father's Place - FM
DYEAR=1900
DGENRE=
TTITLE0=Intro-Hard Linvin'
TTITLE1=Good Rockin' Tonight
TTITLE2=Dallas
TTITLE3=Wishing for You
TTITLE4=I Had My Hopes Up High
TTITLE5=Dam of My Heart
TTITLE6=Hold On
TTITLE7=Standin' at a Big Hotel
TTITLE8=Road Hawg
TTITLE9=Fools Fall in Love
TTITLE10=Keep Gettin' Paid the Same
TTITLE11=Musta Notta Gotta Lotta
TTITLE12=Not Fade Away
TTITLE13=Fingernails
TTITLE14=Cotten Picker
TTITLE15=Suckin' on a Big Bottle of Gin
TTITLE16=Long Snake Moan
EXTD=
EXTT0=
EXTT1=
EXTT2=
EXTT3=
EXTT4=
EXTT5=
EXTT6=
EXTT7=
EXTT8=
EXTT9=
EXTT10=
EXTT11=
EXTT12=
EXTT13=
EXTT14=
EXTT15=
EXTT16=
PLAYORDER=
